{"title":"Thomas.And.Friends.Together.On.The.Tracks[2006]-Bearmeister.avi","uid":4022070,"size":519047168,"categoryP":"video","categoryS":"tv_shows","magnet":"?xt=urn:btih:6754d99ec78773b38b435608fba1f789f2175e10&amp;dn=Thomas.And.Friends.Together.On.The.Tracks%5B2006%5D-Bearmeister.avi&amp;tr=udp%3A%2F%2Ftracker.openbittorrent.com%3A80&amp;tr=udp%3A%2F%2Fopen.demonii.com%3A1337&amp;tr=udp%3A%2F%2Ftracker.coppersurfer.tk%3A6969&amp;tr=udp%3A%2F%2Fexodus.desync.com%3A6969","seeders":0,"leechers":0,"uploader":"bearmeister","files":1,"time":1202712686,"description":"\nAll Bearmeister torrents located here &lt;a href=&quot;\nhttp://thepiratebay.se/user/bearmeister/&quot; rel=&quot;nofollow&quot; target=&quot;_NEW&quot;&gt;\nhttp://thepiratebay.se/user/bearmeister/&lt;/a&gt;\n\n  Duration: 00:56:11.0, bitrate: 1231 kb/s\n  Stream #0.0: Video: mpeg4, 688x384, 25.00 fps\n  Stream #0.1: Audio: mp3, 48000 Hz, stereo, 128 kb/s\n\nSix wonderful Thomas adventures featuring a host of his friends. Episodes include: &amp;#039;Molly&amp;#039;s Special Special&amp;#039;, &amp;#039;Respect For Gordon&amp;#039;, &amp;#039;Emily Knows Best&amp;#039;, &amp;#039;Saving Edward&amp;#039;, &amp;#039;Rheneas And The Dinosaur&amp;#039; and &amp;#039;Thomas And The Golden Eagle&amp;#039;.","torrent":{"xt":"urn:btih:6754d99ec78773b38b435608fba1f789f2175e10","amp;dn":"Thomas.And.Friends.Together.On.The.Tracks%5B2006%5D-Bearmeister.avi","amp;tr":["udp%3A%2F%2Ftracker.openbittorrent.com%3A80","udp%3A%2F%2Fopen.demonii.com%3A1337","udp%3A%2F%2Ftracker.coppersurfer.tk%3A6969","udp%3A%2F%2Fexodus.desync.com%3A6969"],"infoHash":"6754d99ec78773b38b435608fba1f789f2175e10","infoHashBuffer":{"type":"Buffer","data":[103,84,217,158,199,135,115,179,139,67,86,8,251,161,247,137,242,23,94,16]},"announce":[],"urlList":[]}}